<?xml version="1.0" standalone="no"?><!DOCTYPE svg PUBLIC "-//W3C//DTD SVG 1.1//EN" "http://www.w3.org/Graphics/SVG/1.1/DTD/svg11.dtd"><svg t="1700661811609" class="icon" viewBox="0 0 1024 1024" version="1.1" xmlns="http://www.w3.org/2000/svg" p-id="1498" xmlns:xlink="http://www.w3.org/1999/xlink" width="200" height="200"><path d="M904.101037 676.946871H118.670712c-15.461511 0-28.105271-12.535384-28.105271-28.033021 0-15.461511 12.643759-28.105271 28.105271-28.10527h785.430325c15.461511 0 28.105271 12.643759 28.105271 28.10527s-12.607634 28.033021-28.105271 28.033021z m-56.029916-324.980738c-11.018133 10.945883-28.719396 10.945883-39.665279 0-11.018133-10.945883-11.018133-28.755521 0-39.665279l39.665279-39.665279a27.97522 27.97522 0 0 1 39.593029 0 27.93187 27.93187 0 0 1 0 39.665279l-39.593029 39.665279z m-62.279545 212.776406c-26.082269-128.027094-138.683977-224.444789-274.441826-224.44479-135.649474 0-248.287307 96.417696-274.369576 224.44479H177.915755c21.602766-158.263741 162.454244-280.583081 333.433995-280.583081 171.088125 0 311.903478 122.31934 333.506244 280.583081h-59.064418z m-274.441826-336.612997c-15.461511 0-28.033021-12.535384-28.033021-28.10527V143.95823c0-15.461511 12.535384-28.105271 28.033021-28.10527 15.569886 0 28.105271 12.643759 28.10527 28.10527v56.029916c0 15.606011-12.535384 28.141396-28.10527 28.141396zM174.700628 351.966133L135.035349 312.264729c-10.945883-10.945883-10.945883-28.755521 0-39.665279 11.018133-10.945883 28.719396-10.945883 39.665279 0l39.665279 39.665279a27.93187 27.93187 0 0 1 0 39.665279c-10.909758 10.982008-28.647146 10.982008-39.665279 0.036125z m-28.033021 381.119029h729.40041c15.497636 0 28.033021 12.535384 28.03302 28.03302a28.033021 28.033021 0 0 1-28.03302 28.033021H146.667607c-15.497636 0-28.033021-12.535384-28.03302-28.033021 0.036125-15.497636 12.571509-28.033021 28.03302-28.03302z m84.171312 112.168207h561.093911c15.497636 0 28.033021 12.535384 28.033021 28.033021 0 15.569886-12.535384 28.105271-28.033021 28.10527H230.838919c-15.497636 0-28.033021-12.535384-28.03302-28.10527 0-15.497636 12.535384-28.033021 28.03302-28.033021z" fill="#4490f1" p-id="1499"></path></svg>