<?xml version="1.0" standalone="no"?><!DOCTYPE svg PUBLIC "-//W3C//DTD SVG 1.1//EN" "http://www.w3.org/Graphics/SVG/1.1/DTD/svg11.dtd"><svg t="1700489639093" class="icon" viewBox="0 0 1024 1024" version="1.1" xmlns="http://www.w3.org/2000/svg" p-id="1482" xmlns:xlink="http://www.w3.org/1999/xlink" width="200" height="200"><path d="M467.354 221.798h89.292a5.594 5.594 0 0 0 5.581-5.58 5.594 5.594 0 0 0-5.58-5.581h-89.293a5.594 5.594 0 0 0-5.581 5.58 5.594 5.594 0 0 0 5.58 5.581z m39.065 535.757c-18.483 0-33.485 15.002-33.485 33.485s15.002 33.485 33.485 33.485 33.485-15.002 33.485-33.485-15.002-33.485-33.485-33.485z" p-id="1483" fill="#d81e06"></path><path d="M512 0C229.222 0 0 229.222 0 512s229.222 512 512 512 512-229.222 512-512S794.778 0 512 0z m195.328 791.04c0 30.822-24.986 55.808-55.808 55.808H372.48c-30.822 0-55.808-24.986-55.808-55.808V232.96c0-30.822 24.986-55.808 55.808-55.808h279.04c30.822 0 55.808 24.986 55.808 55.808v558.08z" p-id="1484" fill="#d81e06"></path><path d="M350.157 244.122h323.686v491.11H350.157z" p-id="1485" fill="#d81e06"></path></svg>