<?xml version="1.0" standalone="no"?><!DOCTYPE svg PUBLIC "-//W3C//DTD SVG 1.1//EN" "http://www.w3.org/Graphics/SVG/1.1/DTD/svg11.dtd"><svg t="1698498368021" class="icon" viewBox="0 0 1024 1024" version="1.1" xmlns="http://www.w3.org/2000/svg" p-id="19703" xmlns:xlink="http://www.w3.org/1999/xlink" width="200" height="200"><path d="M512 123.733333c214.090667 0 388.266667 174.176 388.266667 388.266667S726.090667 900.266667 512 900.266667 123.733333 726.090667 123.733333 512s174.176-388.266667 388.266667-388.266667m0-59.733333C264.533333 64 64 264.533333 64 512s200.533333 448 448 448 448-200.533333 448-448S759.466667 64 512 64z" fill="#999999" p-id="19704"></path><path d="M32 480h320v64H32zM672 480h320v64H672zM544 32v320h-64V32zM544 672v320h-64V672z" fill="#999999" p-id="19705"></path><path d="M512 512m-64 0a64 64 0 1 0 128 0 64 64 0 1 0-128 0Z" fill="#999999" p-id="19706"></path></svg>